# xmcd
#
# Track frame offsets: 
#        150
#        13754
#        28559
#        39907
#        62116
#        77401
#        91694
#        99528
#        116925
#        130393
#        142486
#        156248
#        174381
#        188993
#        215183
#        229819
#        255386
#        270922
#        293541
#
# Disc length: 4201 seconds
#
# Revision: 2
# Processed by: cddbd v1.5.2PL0 Copyright (c) Steve Scherf et al.
# Submitted via: ExactAudioCopyFreeDBPlugin 1.0
#
DISCID=0a106713
DTITLE=Trīs no Pārdaugavas - Reiz dziedāja Trīs no Pārdaugavas - III. 
DTITLE=Tvarts
DYEAR=2008
DGENRE=Latvian
TTITLE0=Sapņu sala
TTITLE1=Divas sirds
TTITLE2=Mežābele
TTITLE3=Zemgaļu balāde
TTITLE4=Ganu zēns
TTITLE5=Kamolā tinēja
TTITLE6=Vilciens uz Valku
TTITLE7=Kučieris
TTITLE8=Kazas
TTITLE9=Pie Buciņiem
TTITLE10=Vai nav burvīgi būt par latvieti
TTITLE11=Malienas kovbojs
TTITLE12=Kad visu tautu latvieši kopā nāks
TTITLE13=Tēvzemei
TTITLE14=Lai bij grūti, kam bij grūti
TTITLE15=Tā kā ir, tā kā nav
TTITLE16=Šņāc un krāc
TTITLE17=Pārkārtošanās
TTITLE18=Latvija - 1990
EXTD=
EXTT0=
EXTT1=
EXTT2=
EXTT3=
EXTT4=
EXTT5=
EXTT6=
EXTT7=
EXTT8=
EXTT9=
EXTT10=
EXTT11=
EXTT12=
EXTT13=
EXTT14=
EXTT15=
EXTT16=
EXTT17=
EXTT18=
PLAYORDER=
